<svg version="1.1" id="Layer_1" xmlns="http://www.w3.org/2000/svg" xmlns:xlink="http://www.w3.org/1999/xlink" x="0px" y="0px" viewBox="0 0 1185.4 1080" style="enable-background:new 0 0 1185.4 1080;" xml:space="preserve" class="injected-svg" data-src="/static/media/cnquality.93a1e444.svg">
<style type="text/css">
	.st0{fill:none;stroke:#ffffff;stroke-miterlimit:10;}
</style>
<polygon points="613.6,522.7 613.6,522.7 613.6,522.7 "></polygon>
<g>
	<path fill="white" d="M412.7,662.5c-125.8,0-227.8-102-227.8-227.8c0-125.8,102-227.8,227.8-227.8c81.3,0,152.5,42.5,192.8,106.5l82.5-89.5   C624.7,141.2,524.9,87.9,412.7,87.9C221.2,87.9,66,243.2,66,434.7s155.3,346.8,346.8,346.8c112.4,0,212.3-53.5,275.6-136.3   l-85-85.7C562.7,621.5,492.5,662.5,412.7,662.5z"></path>
	<path fill="white" d="M594.6,320.2c-25-39.6-61.2-69.2-103.2-85.6v400.1c40.8-16,76.3-53,101.1-90.9c0,0,12.7-25.3,18.2-51.1V326.8l-7.1,7.7   L594.6,320.2z"></path>
	<path fill="white" d="M610.7,128.4l-27.2-32h-47.9c31,11.2,60.2,26.7,87,46L610.7,128.4z"></path>
	<polygon fill="white" points="1121,96.2 1001.7,96.2 1001.7,588.4 698.4,231.6 697.5,232.6 616.8,320.2 1001.7,772.9 1001.8,773.1 1121,773.1     "></polygon>
	<path fill="white" d="M610.7,735.2c-23.6,15.6-48.9,28.4-75.6,37.9h75.6V735.2z"></path>
	<path fill="white" d="M104.3,959.7c2.3-6,3.4-12.7,3.4-20.2c0-9-1.8-17.1-5.3-24.2c-3.5-7.2-8.7-12.7-15.4-16.7c-6.7-4-14.3-6-22.7-6   c-8.3,0-15.8,1.9-22.5,5.8c-6.7,3.8-11.9,9.4-15.5,16.8s-5.4,15.5-5.4,24.5c0,9,1.8,17.1,5.4,24.3c3.6,7.2,8.8,12.8,15.5,16.7   c6.7,4,14.1,5.9,22.4,5.9c8.1,0,15.6-1.9,22.3-5.6c6.5,5.1,13,8.8,19.5,11.2l3.5-8.4c-4.7-1.8-9.8-4.6-15.4-8.4   C98.6,970.9,102.1,965.7,104.3,959.7z M84.8,968.6c-4.5-3.8-10.2-6.7-17.2-8.7l-2.9,8.7c4.2,1,8.1,2.8,11.9,5.2   c-3.8,1.6-7.8,2.4-12.1,2.4c-9.1,0-16.5-3.2-22.4-9.5c-5.8-6.3-8.8-15.4-8.8-27.2c0-12.2,3-21.3,8.9-27.5s13.3-9.2,22.3-9.2   c6,0,11.4,1.5,16.2,4.6c4.8,3,8.5,7.3,11,12.8c2.5,5.5,3.7,11.9,3.7,19.3C95.3,952.5,91.8,962.2,84.8,968.6z"></path>
	<path fill="white" d="M285,946.6c0,11.4-1.9,19.1-5.6,23.1c-3.8,4-10.1,6-18.9,6c-5.2,0-9.5-1-13.1-3c-3.6-2-6.1-4.9-7.6-8.6   c-1.5-3.7-2.2-9.5-2.2-17.4v-52.4h-12v52.5c0,9.6,1.2,17.2,3.5,22.8c2.3,5.6,6.2,9.8,11.6,12.7c5.4,2.9,12.4,4.4,20.9,4.4   c8.8,0,15.8-1.7,21.2-5c5.4-3.4,9.1-7.7,11.2-13.1c2.1-5.4,3.1-12.6,3.1-21.7v-52.5h-12V946.6z"></path>
	<path fill="white" d="M443.4,894.2L408.5,985h12.8l10-27.5h38l10.6,27.5h13.7l-37.2-90.8H443.4z M434.7,947.7l10-26.6c2.1-5.7,3.7-11.5,4.9-17.3   c1.4,4.9,3.5,11.2,6.4,18.8l9.5,25.1H434.7z"></path>
	<polygon fill="white" points="616.1,894.2 604,894.2 604,985 660.8,985 660.8,974.3 616.1,974.3  "></polygon>
	<rect fill="white" x="778.6" y="894.2" width="12" height="90.8"></rect>
	<polygon fill="white" points="906.5,904.9 936.4,904.9 936.4,985 948.4,985 948.4,904.9 978.4,904.9 978.4,894.2 906.5,894.2  "></polygon>
	<path fill="white" d="M1152.1,894.2l-17.6,26.7c-3.9,5.9-7.2,11.3-9.9,16c-2.8-5.1-5.9-10.2-9.2-15.4l-17.9-27.4h-14.6l35,52.3V985h12v-38.5   l36.2-52.3H1152.1z"></path>
</g>
</svg>